<svg width="1024" height="1024" viewBox="0 0 1024 1024" xmlns="http://www.w3.org/2000/svg">
  <defs>
    <filter id="paper" x="-20%" y="-20%" width="140%" height="140%">
      <feTurbulence type="fractalNoise" baseFrequency="0.035" numOctaves="4" seed="8" />
      <feColorMatrix type="saturate" values="0" />
      <feComponentTransfer>
        <feFuncA type="table" tableValues="0 0.18" />
      </feComponentTransfer>
    </filter>
    <filter id="shadow" x="-30%" y="-30%" width="160%" height="160%">
      <feDropShadow dx="0" dy="9" stdDeviation="9" flood-color="#650c0f" flood-opacity="0.28" />
    </filter>
    <linearGradient id="tape" x1="0" y1="0" x2="1" y2="1">
      <stop offset="0" stop-color="#fff4ea" stop-opacity="0.9" />
      <stop offset="0.52" stop-color="#f5d7cd" stop-opacity="0.68" />
      <stop offset="1" stop-color="#fff9f1" stop-opacity="0.84" />
    </linearGradient>
  </defs>
  <rect width="1024" height="1024" fill="#b9151d" />
  <rect width="1024" height="1024" filter="url(#paper)" opacity="0.45" />
  <g filter="url(#shadow)" transform="translate(512 512)">
    <rect x="-72" y="-360" width="144" height="720" rx="16" transform="rotate(9)" fill="url(#tape)" opacity="0.72" />
    <rect x="-72" y="-360" width="144" height="720" rx="16" transform="rotate(48)" fill="url(#tape)" opacity="0.72" />
    <rect x="-72" y="-360" width="144" height="720" rx="16" transform="rotate(88)" fill="url(#tape)" opacity="0.72" />
    <rect x="-72" y="-360" width="144" height="720" rx="16" transform="rotate(128)" fill="url(#tape)" opacity="0.72" />
    <path d="M-250,-64 C-172,-130 -58,-110 15,-84 C95,-56 170,-93 242,-38 C167,28 69,16 4,72 C-73,133 -187,84 -256,19 C-226,-3 -228,-29 -250,-64 Z" fill="#fff7ed" opacity="0.92" />
    <path d="M-228,-36 C-126,-68 -44,-46 22,-34 C95,-21 150,-50 218,-16 C140,38 54,14 -14,62 C-92,96 -162,66 -236,14" fill="#ead7c8" opacity="0.52" />
    <path d="M-190,19 C-105,-3 -52,13 1,2 C72,-12 119,9 190,23 C105,64 22,36 -28,70 C-84,103 -151,65 -190,19 Z" fill="#fffaf2" opacity="0.58" />
  </g>
</svg>
