<svg preserveAspectRatio="none" overflow="visible" style="display: block;" width="9.5" height="9.5" viewBox="0 0 9.5 9.5" fill="none" xmlns="http://www.w3.org/2000/svg">
<g id="Group 1171275884">
<path id="Vector 6 (Stroke)" d="M8.75 3.99194C9.16421 3.99194 9.5 4.32773 9.5 4.74194C9.5 5.15616 9.16421 5.49194 8.75 5.49194H0.75C0.335786 5.49194 0 5.15616 0 4.74194C0 4.32773 0.335786 3.99194 0.75 3.99194H8.75Z" fill="#C0C0C0"/>
<path id="Vector 7 (Stroke)" d="M5.50801 8.75C5.50801 9.16421 5.17222 9.5 4.75801 9.5C4.34379 9.5 4.00801 9.16421 4.00801 8.75L4.00801 0.75C4.00801 0.335786 4.34379 7.42823e-08 4.75801 9.23882e-08C5.17222 1.10494e-07 5.50801 0.335787 5.50801 0.75L5.50801 8.75Z" fill="#C0C0C0"/>
</g>
</svg>
